<?xml version="1.0" standalone="no"?>
<!DOCTYPE svg PUBLIC "-//W3C//DTD SVG 20010904//EN"
 "http://www.w3.org/TR/2001/REC-SVG-20010904/DTD/svg10.dtd">
<svg version="1.0" xmlns="http://www.w3.org/2000/svg"
 width="512.000000pt" height="512.000000pt" viewBox="0 0 512.000000 512.000000"
 preserveAspectRatio="xMidYMid meet">

<g transform="translate(0.000000,512.000000) scale(0.100000,-0.100000)"
fill="red" stroke="none">
<path d="M1270 4891 c-90 -28 -169 -96 -209 -181 l-26 -55 0 -1758 0 -1759 33
-29 c18 -16 41 -29 52 -29 18 0 20 -7 20 -59 0 -54 -3 -62 -35 -94 -29 -29
-35 -42 -35 -77 0 -36 6 -48 35 -76 30 -28 35 -39 35 -76 0 -41 -2 -44 -40
-60 -58 -24 -74 -67 -68 -178 10 -169 95 -277 250 -316 102 -26 198 -1 293 79
28 23 238 201 469 395 230 195 432 358 448 364 16 6 42 8 59 4 20 -4 184 -136
494 -398 277 -235 487 -405 521 -423 113 -59 266 -33 361 62 22 22 50 62 64
89 l24 49 3 1868 2 1869 -34 34 c-19 19 -43 34 -55 34 -19 0 -21 6 -21 55 0
49 2 55 21 55 12 0 37 16 56 35 l35 35 -4 157 c-3 140 -6 163 -26 204 -34 70
-87 125 -150 156 l-57 28 -1245 2 c-685 1 -1256 -2 -1270 -6z"/>
</g>
</svg>
