<?xml version="1.0" standalone="no"?>
<!DOCTYPE svg PUBLIC "-//W3C//DTD SVG 20010904//EN"
 "http://www.w3.org/TR/2001/REC-SVG-20010904/DTD/svg10.dtd">
<svg version="1.0" xmlns="http://www.w3.org/2000/svg"
 width="512.000000pt" height="512.000000pt" viewBox="0 0 512.000000 512.000000"
 preserveAspectRatio="xMidYMid meet">

<g transform="translate(0.000000,512.000000) scale(0.100000,-0.100000)"
fill="#000000" stroke="none">
<path d="M3485 4960 c-35 -14 -42 -32 -47 -122 -6 -111 -21 -132 -106 -142
-76 -9 -133 -38 -181 -92 -92 -105 -93 -252 -1 -356 57 -66 121 -91 245 -96
108 -5 136 -16 161 -63 29 -57 10 -144 -39 -171 -15 -9 -90 -15 -242 -18 -201
-5 -224 -7 -260 -27 -81 -43 -118 -103 -130 -210 -12 -100 16 -153 79 -153 44
0 66 32 66 95 0 71 21 122 55 135 15 6 113 10 219 10 214 0 255 8 319 61 60
50 89 109 95 195 6 89 -13 147 -67 207 -55 62 -119 87 -221 87 -106 1 -148 15
-177 59 -58 86 8 190 119 191 71 1 150 57 191 135 17 32 21 59 21 137 1 85 -2
100 -19 117 -25 24 -54 32 -80 21z"/>
<path d="M2839 4861 c-24 -19 -24 -22 -24 -206 l0 -187 28 -24 c34 -29 56 -30
91 -3 l26 20 0 190 c0 176 -1 190 -20 209 -25 25 -71 26 -101 1z"/>
<path d="M2561 4544 c-17 -22 -21 -41 -21 -103 0 -103 13 -142 59 -184 42 -38
52 -42 121 -52 69 -9 110 -52 110 -115 0 -63 -41 -106 -110 -115 -69 -10 -79
-14 -121 -52 -50 -45 -59 -80 -59 -236 0 -123 1 -129 25 -152 31 -32 74 -33
103 -2 19 20 22 36 24 152 l3 129 65 15 c154 38 231 142 217 292 -10 116 -87
198 -214 230 l-68 17 -3 78 c-2 64 -7 83 -24 101 -30 33 -80 31 -107 -3z"/>
<path d="M2429 3459 c-25 -9 -49 -45 -49 -73 0 -30 40 -65 78 -68 l37 -3 3
-67 c2 -38 -1 -68 -6 -68 -5 0 -92 37 -193 82 -275 123 -164 149 -1039 -241
-477 -213 -733 -332 -748 -349 -17 -18 -22 -33 -18 -53 5 -25 1 -29 -62 -57
l-67 -30 -22 24 c-29 31 -49 30 -138 -7 -141 -60 -199 -134 -199 -254 0 -80
20 -129 76 -182 46 -44 97 -63 170 -63 52 0 79 8 153 40 49 22 90 40 92 40 2
0 3 -412 3 -915 l0 -915 -229 0 -230 0 -20 -26 c-34 -43 -26 -86 20 -109 43
-23 4995 -23 5038 0 46 23 54 66 20 109 -19 24 -26 26 -105 26 l-84 0 0 369
c0 410 -7 371 66 386 43 8 103 61 125 109 26 57 24 112 -7 174 -28 57 -84 98
-146 108 -32 6 -33 8 -30 44 8 77 -36 153 -109 190 -28 15 -59 20 -114 20
l-75 0 0 49 c0 77 -42 148 -109 183 -51 27 -59 28 -203 28 -145 0 -150 -1
-173 -25 -14 -13 -25 -31 -25 -40 0 -12 -14 -15 -75 -15 -61 0 -75 3 -75 15 0
9 -11 27 -25 40 -24 24 -28 25 -180 25 l-155 0 0 85 c0 47 2 85 4 85 2 0 44
-18 94 -40 149 -66 254 -53 338 43 87 99 86 228 -2 326 -39 44 -68 58 -478
241 l-436 195 0 213 0 212 39 0 c31 0 44 6 60 26 12 15 21 33 21 40 0 29 -25
64 -53 74 -38 13 -721 12 -758 -1z m176 -884 c292 -130 601 -268 688 -307
l157 -71 0 -58 0 -59 -250 0 -251 0 -24 -25 c-31 -30 -32 -71 -3 -102 21 -23
23 -23 275 -23 l253 0 0 -104 0 -105 -199 -3 c-195 -3 -200 -4 -225 -27 -34
-32 -34 -74 -1 -106 24 -25 25 -25 225 -25 l200 0 0 -105 0 -105 -100 0 c-91
0 -100 2 -100 19 0 10 -9 30 -21 45 -40 51 -64 56 -251 56 -196 0 -226 -8
-260 -71 -16 -30 -18 -61 -18 -307 0 -393 -8 -382 278 -382 152 0 189 3 212
16 29 18 60 62 60 88 0 14 15 16 100 16 l100 0 0 -105 0 -105 -300 0 -301 0
-24 -25 c-33 -32 -33 -74 1 -106 l26 -24 299 -3 299 -3 0 -75 0 -74 -515 0
-515 0 0 270 c0 265 0 270 19 260 11 -5 33 -10 50 -10 52 0 90 71 59 113 -27
35 -454 397 -475 403 -13 3 -33 3 -45 0 -21 -6 -463 -382 -480 -409 -25 -40
15 -107 63 -107 17 0 39 5 50 10 18 10 19 7 19 -53 0 -69 20 -109 60 -122 17
-6 20 -15 20 -75 0 -60 -3 -69 -20 -75 -42 -13 -60 -53 -60 -131 l0 -74 -515
0 -515 0 0 75 0 75 284 0 c173 0 295 4 312 10 57 22 72 83 29 125 l-24 25
-301 0 -300 0 0 105 0 105 100 0 c85 0 100 -2 100 -16 0 -26 31 -70 60 -88 23
-13 60 -16 218 -16 281 0 272 -13 272 382 0 246 -2 277 -18 307 -34 63 -64 71
-260 71 -109 0 -181 -4 -195 -11 -38 -20 -66 -51 -72 -80 l-7 -29 -99 0 -99 0
0 105 0 105 200 0 c200 0 201 0 225 25 26 25 32 63 15 95 -17 32 -67 40 -256
40 l-184 0 0 105 0 105 252 0 c245 0 252 1 275 22 31 29 30 72 -2 103 l-24 25
-251 0 -250 0 0 59 0 58 698 312 c383 171 704 309 712 307 8 -2 254 -110 545
-241z m-1355 -1485 l0 -230 -125 0 -125 0 0 230 0 230 125 0 125 0 0 -230z
m1850 0 l0 -230 -125 0 -125 0 0 230 0 230 125 0 125 0 0 -230z m-2255 0 l0
-105 -97 -3 -98 -3 0 111 0 111 98 -3 97 -3 0 -105z m2605 6 l0 -103 -91 -6
c-50 -4 -95 -4 -100 -1 -10 6 -12 197 -2 207 3 4 48 7 100 7 l93 0 0 -104z
m1300 -121 l0 -65 -355 0 -356 0 -24 -25 c-43 -42 -28 -103 29 -125 17 -6 156
-10 367 -10 l339 0 0 -65 0 -65 -255 0 -256 0 -24 -25 c-28 -27 -32 -70 -11
-98 24 -31 75 -37 313 -37 l233 0 0 -75 0 -75 -575 0 -575 0 0 74 0 74 106 4
c102 3 107 5 130 31 31 36 30 71 -1 102 -23 23 -31 25 -130 25 l-105 0 0 210
0 210 575 0 575 0 0 -65z"/>
<path d="M1605 2386 c-164 -76 -223 -109 -232 -127 -17 -32 -18 -497 -2 -532
19 -42 46 -47 278 -47 206 0 220 1 245 21 l26 20 0 364 0 364 -26 20 c-15 12
-36 21 -48 20 -11 0 -120 -46 -241 -103z m165 -326 l0 -231 -127 3 -128 3 -3
168 -2 168 122 59 c68 32 126 59 131 59 4 1 7 -103 7 -229z"/>
<path d="M2206 2469 l-26 -20 0 -364 0 -364 26 -20 c25 -20 39 -21 254 -21
209 0 230 2 251 19 24 19 24 19 27 283 3 243 1 266 -15 286 -20 24 -441 222
-471 222 -11 0 -31 -9 -46 -21z m247 -231 c62 -28 118 -56 125 -61 9 -8 12
-50 10 -176 l-3 -166 -127 -3 -128 -3 0 231 c0 126 2 230 5 230 3 0 56 -23
118 -52z"/>
</g>
</svg>
