<?xml version="1.0" standalone="no"?>
<!DOCTYPE svg PUBLIC "-//W3C//DTD SVG 20010904//EN"
 "http://www.w3.org/TR/2001/REC-SVG-20010904/DTD/svg10.dtd">
<svg version="1.0" xmlns="http://www.w3.org/2000/svg"
 width="256.000000pt" height="256.000000pt" viewBox="0 0 256.000000 256.000000"
 preserveAspectRatio="xMidYMid meet">

<g transform="translate(0.000000,256.000000) scale(0.100000,-0.100000)"
fill="#000000" stroke="none">
<path d="M1170 2522 c-86 -23 -146 -59 -208 -127 -167 -182 -160 -422 19 -621
40 -45 99 -132 157 -233 133 -229 145 -229 271 -9 45 80 104 171 129 202 108
131 123 154 144 206 18 45 22 76 22 170 1 109 -1 118 -31 182 -56 119 -171
209 -301 237 -71 15 -124 13 -202 -7z m246 -155 c106 -54 164 -148 164 -267 0
-119 -57 -212 -164 -268 -44 -23 -63 -27 -136 -27 -73 0 -92 4 -136 27 -105
55 -166 154 -166 268 0 135 85 246 222 291 49 16 162 4 216 -24z"/>
<path d="M543 1875 c-149 -25 -201 -38 -235 -58 -52 -30 -94 -88 -108 -149 -6
-26 -10 -292 -10 -669 0 -712 -1 -698 75 -774 32 -32 59 -49 102 -61 58 -17
59 -17 284 20 l227 37 113 -30 c415 -109 631 -161 671 -161 56 0 486 66 525
81 56 21 102 61 128 112 l25 51 0 679 c0 758 4 716 -71 781 -76 65 -125 68
-389 26 -102 -16 -199 -30 -217 -30 -25 0 -39 -9 -72 -47 -23 -27 -37 -51 -32
-56 23 -23 141 -19 340 13 120 18 218 29 237 25 23 -4 43 -18 61 -42 l28 -36
0 -647 c0 -600 -1 -648 -18 -673 -32 -48 -58 -57 -303 -94 l-239 -37 -325 84
c-501 128 -422 120 -683 76 -123 -20 -235 -34 -249 -31 -14 4 -39 20 -54 36
l-29 30 -3 655 c-3 716 -4 697 56 728 15 8 115 28 222 45 107 17 207 34 222
37 l26 5 -26 54 c-33 65 -19 64 -279 20z"/>
<path d="M910 1685 c-29 -31 -47 -31 -76 -4 l-23 21 -190 -30 c-105 -17 -196
-34 -201 -37 -6 -4 -10 -86 -10 -211 l0 -204 35 0 c33 0 39 -5 90 -85 30 -46
64 -89 76 -96 30 -15 97 -5 121 19 25 25 17 42 -47 101 -52 48 -69 82 -60 123
13 56 57 61 156 17 103 -45 111 -39 124 86 7 74 29 99 99 116 28 6 55 14 59
16 15 9 -84 166 -118 185 -7 4 -22 -3 -35 -17z"/>
<path d="M1917 1566 c-75 -12 -141 -26 -146 -32 -5 -5 -34 -46 -65 -92 -60
-89 -65 -112 -42 -178 7 -22 16 -61 21 -89 8 -59 38 -120 64 -134 11 -7 56 -8
112 -5 86 6 96 5 121 -15 42 -33 50 -80 28 -154 -43 -147 -38 -170 63 -262
l72 -66 3 513 c1 282 0 519 -3 526 -6 17 -65 14 -228 -12z"/>
<path d="M977 1200 c-28 -22 -47 -89 -47 -163 0 -23 -9 -73 -20 -112 -31 -108
-4 -168 111 -246 91 -62 106 -112 69 -230 -10 -35 -18 -65 -16 -67 2 -2 30
-10 62 -18 42 -11 63 -13 78 -5 12 6 32 11 46 13 23 3 25 8 30 65 3 34 7 63
10 65 3 3 22 17 42 32 31 23 42 41 58 96 22 73 36 90 93 114 23 9 41 24 44 37
4 12 26 63 50 113 44 90 44 91 24 107 -11 9 -45 19 -76 23 -76 9 -100 23 -167
99 -57 64 -107 97 -148 97 -11 0 -38 -11 -58 -25 -20 -14 -46 -25 -58 -25 -11
0 -31 11 -44 25 -28 30 -49 31 -83 5z"/>
</g>
</svg>
