<?xml version="1.0" standalone="no"?>
<!DOCTYPE svg PUBLIC "-//W3C//DTD SVG 20010904//EN"
 "http://www.w3.org/TR/2001/REC-SVG-20010904/DTD/svg10.dtd">
<svg version="1.0" xmlns="http://www.w3.org/2000/svg"
 width="512.000000pt" height="512.000000pt" viewBox="0 0 512.000000 512.000000"
 preserveAspectRatio="xMidYMid meet">

<g transform="translate(0.000000,512.000000) scale(0.100000,-0.100000)"
fill="#000000" stroke="none">
<path d="M2371 4505 c-266 -60 -492 -250 -590 -496 -125 -313 -64 -554 276
-1091 125 -198 447 -641 482 -662 15 -9 269 327 422 559 246 372 371 629 399
821 13 90 -3 223 -40 331 -83 249 -294 449 -552 524 -96 28 -304 35 -397 14z
m322 -345 c33 -12 82 -41 110 -64 198 -160 214 -448 35 -627 -227 -227 -623
-121 -704 190 -60 232 87 470 321 521 62 14 174 4 238 -20z"/>
</g>
</svg>
