<?xml version="1.0" standalone="no"?>
<!DOCTYPE svg PUBLIC "-//W3C//DTD SVG 20010904//EN"
 "http://www.w3.org/TR/2001/REC-SVG-20010904/DTD/svg10.dtd">
<svg version="1.0" xmlns="http://www.w3.org/2000/svg"
 width="400.000000pt" height="400.000000pt" viewBox="0 0 400.000000 400.000000"
 preserveAspectRatio="xMidYMid meet">

<g transform="translate(0.000000,400.000000) scale(0.100000,-0.100000)"
fill="#000000" stroke="none">
<path d="M1812 3630 c-225 -59 -426 -229 -537 -455 -129 -263 -133 -577 -11
-893 124 -321 332 -561 563 -648 307 -116 644 80 853 496 224 446 204 893 -54
1216 -110 137 -271 243 -434 285 -102 26 -278 25 -380 -1z"/>
<path d="M907 1489 c-123 -29 -234 -133 -315 -294 -46 -92 -89 -240 -102 -348
l-12 -98 49 -52 c285 -308 660 -518 1075 -602 439 -88 874 -33 1277 161 217
105 406 240 574 411 l68 70 -15 112 c-23 159 -89 327 -182 458 -53 75 -105
120 -181 159 l-58 29 -1070 2 c-607 1 -1086 -3 -1108 -8z"/>
</g>
</svg>
